<svg width="198" height="174" viewBox="0 0 198 174" fill="none" xmlns="http://www.w3.org/2000/svg">
<rect width="198" height="174" fill="white"/>
<path d="M56.9446 59.7273H68.6307V95.6222C68.6307 99.6525 67.6681 103.179 65.7429 106.202C63.8357 109.224 61.1638 111.581 57.7273 113.273C54.2907 114.946 50.2874 115.783 45.7173 115.783C41.1293 115.783 37.117 114.946 33.6804 113.273C30.2438 111.581 27.572 109.224 25.6648 106.202C23.7576 103.179 22.804 99.6525 22.804 95.6222V59.7273H34.4901V94.6236C34.4901 96.7287 34.9489 98.5999 35.8665 100.237C36.8021 101.875 38.1155 103.161 39.8068 104.097C41.4981 105.032 43.4683 105.5 45.7173 105.5C47.9844 105.5 49.9545 105.032 51.6278 104.097C53.3191 103.161 54.6236 101.875 55.5412 100.237C56.4768 98.5999 56.9446 96.7287 56.9446 94.6236V59.7273ZM78.2454 115V59.7273H89.9315V82.5327H113.654V59.7273H125.314V115H113.654V92.1676H89.9315V115H78.2454ZM132.843 69.3622V59.7273H178.238V69.3622H161.316V115H149.765V69.3622H132.843Z" fill="black"/>
</svg>
